<svg xmlns="http://www.w3.org/2000/svg" width="216" height="67" viewBox="0 0 216 67">
  <g id="moonglow_logo" data-name="moonglow logo" transform="translate(0 0)">
    <g id="Group_11" data-name="Group 11">
      <g id="Group_8" data-name="Group 8" transform="translate(11.812 25.961)">
        <g id="Group_7" data-name="Group 7">
          <path id="Path_12" data-name="Path 12" d="M258.658,154.632a.242.242,0,0,0-.337-.067c-.157.09-.83.763-1.683,1.593-.853.853-2.244,2.109-3.59,3.276a39.911,39.911,0,0,1-3.388,2.738,37.4,37.4,0,0,1-4.039,2.648c-1.414.83-3.523,1.773-3.523,1.773s-1.189.583-1.459.763a.526.526,0,0,1-.718-.09,3.623,3.623,0,0,0-1.952-1.257,2.044,2.044,0,0,0-.74,0,3.214,3.214,0,0,0-.942.337,3.647,3.647,0,0,0-1.414,1.032c-.561.628-.74,1.055-.875.987s0-.314-.157-.651a59.707,59.707,0,0,0-3.77-4.735c-.539-.471-2.334-2.266-2.4-2.356-.067-.067,0-.494,0-.494s-.045-1.346-.112-1.75A3.076,3.076,0,0,0,227,157.19a16,16,0,0,0-1.279-1.526c-.045-.067-.314-.067-.337.022-.022.067.045.224-.045.247-.09.045-.067,0-.067-.09s-.449-.337-.449-.337.022-.18.022-.247a3.012,3.012,0,0,0-.292-1.055,2.029,2.029,0,0,0-.9-.673,2.8,2.8,0,0,0-.74-.045,2.409,2.409,0,0,0-1.01.516,1.148,1.148,0,0,0-.471.785,2.775,2.775,0,0,0,.045.673c0,.2.247.292.224.426-.022.157-.224.224-.224.224s-.4.516-.516.7a5.585,5.585,0,0,0-.539,1.212c-.067.359-.067.561-.224.628s-.471-.022-.583.135a1.374,1.374,0,0,0-.224.741,1.078,1.078,0,0,0,.247.673s.09.112.022.18-.067,0-.112,0-.112.022-.314.157a1.4,1.4,0,0,0-.583.74c-.2.426-.269.494-.2.875a.718.718,0,0,0,.381.539.937.937,0,0,0,.651-.045,1.43,1.43,0,0,0,.628-.987s0-.157.135-.09a6.223,6.223,0,0,1-.224,1.93,5.2,5.2,0,0,1-.987,1.459c-.583.606-1.66,1.481-1.66,1.481a4.206,4.206,0,0,0-.875,1.3,6.168,6.168,0,0,0-.337,2.064,13.66,13.66,0,0,0,.135,2.6,8.42,8.42,0,0,0,.449,1.638,16.082,16.082,0,0,0,.785,1.8,1.617,1.617,0,0,1,.067.942c-.045.381-.157.718-.157.92s.628.83,1.077,1.369a43.857,43.857,0,0,0,3.321,3.209,21.427,21.427,0,0,0,3.1,2.2c.987.606,3.052,1.773,3.052,1.773a5.251,5.251,0,0,0,.9.067,2.469,2.469,0,0,0,1.3-.314,2.845,2.845,0,0,0,1.346-1.212,5.629,5.629,0,0,0,.942-1.8,17.028,17.028,0,0,1,1.459-2.8c.74-1.279,1.3-2.244,1.907-3.343.606-1.055,1.975-3.366,2.064-3.523-.022.045-.112.4,1.257,2.132.426.539,1.032,1.3,1.728,2.042s2.2,2.715,2.423,2.962a1.052,1.052,0,0,1,.292.875c-.067.337-.314.516-.337.785a7.675,7.675,0,0,0,0,1.436c.067.247.18.539.83.628s1.077.045,1.414.09a3.1,3.1,0,0,1,1.571.583c.561.449,1.907,1.526,2.379,1.818.494.292.494.449,1.122.471s.853-.022.92-.18c.067-.18.045-.067.022-.2a4.673,4.673,0,0,0-.83-1.01c-.449-.449-2.917-3.343-3.859-4.69a33.9,33.9,0,0,1-2.738-4.869c-.808-1.773-2.311-5.228-2.311-5.228s.9-.247,1.548-.449a25.006,25.006,0,0,0,3.59-1.728,6.5,6.5,0,0,0,1.414-1.077c.449-.494,1.122-1.189,1.616-1.75s1.391-1.391,1.93-1.93a6.91,6.91,0,0,1,1.571-1.257c.247-.2,1.144-.022,1.526-.022a1.463,1.463,0,0,0,1.032-.381c.224-.224.292-.314.337-.942s.067-.942.067-1.324.135-.583.449-1.189.718-1.122,1.01-1.683a9.69,9.69,0,0,0,.673-1.773C258.635,155.148,258.747,154.722,258.658,154.632Zm-38.684,7c-.157.247-.292.426-.516.426-.2,0-.359-.18-.359-.471a1.021,1.021,0,0,1,.224-.561s.18-.337.4-.381a.4.4,0,0,1,.471.292C220.265,161.139,220.108,161.386,219.973,161.633Zm5.857.494a2.219,2.219,0,0,1,.359.875c-.022.337-.112.494-.292.583s-.292.112-.426,0c-.157-.112-.269-.718-.269-.718Zm-1.436,3.658c-.471-.247-.561-.381-.628-.74a1.951,1.951,0,0,1,.449-1.1c.157-.224.7-.808.7-.808a2.735,2.735,0,0,0,.247.965c.337.561.987.494,1.167,0a2.132,2.132,0,0,0,.157-1.01,1.584,1.584,0,0,0-.2-.785,1.111,1.111,0,0,0-.314-.337l.2-.426s2.67,3.635,2.8,3.815a1.138,1.138,0,0,1,.292.673c-.045.2-.314.269-.314.269s-1.705-.022-2.648-.135A6.091,6.091,0,0,1,224.394,165.784Zm6.35,6.844c-.561.718-2.8,3.725-2.939,3.882a.945.945,0,0,1-.606.4c-.314.045-.494-.2-.718-.449a1.171,1.171,0,0,1-.292-.92,12.89,12.89,0,0,1,.292-1.459c.045-.381.045-1.01.045-1.01a2.238,2.238,0,0,0,.628-1.212,2.757,2.757,0,0,0-.561-1.459c-.157-.247-.494-.875-.494-.875s5.049.022,5.565-.045.606-.045.9-.112a6.871,6.871,0,0,0,.987-.426S231.282,171.91,230.744,172.628Z" transform="translate(-216.147 -153.484)" fill="#544844"/>
        </g>
      </g>
      <path id="Path_13" data-name="Path 13" d="M220.778,86.41s-1.91,3.4-2.821,4.586a53.052,53.052,0,0,1-3.465,4.027,36.537,36.537,0,0,1-5.22,4.049,44.522,44.522,0,0,1-6.708,3.2,50.48,50.48,0,0,1-7.241,1.521c-1.844.134-3.243.112-4.465.089a57.988,57.988,0,0,1-6.508-1.029,33.764,33.764,0,0,1-8.818-3.87,30.535,30.535,0,0,1-5.575-4.5,39.929,39.929,0,0,1-5.486-7.472,40.206,40.206,0,0,1-2.754-7.361,39.942,39.942,0,0,1-.8-4.609,19.6,19.6,0,0,1-.133-2.886A45.121,45.121,0,0,1,161.2,66.9a38.2,38.2,0,0,1,2.266-7.7,27.129,27.129,0,0,1,3.176-5.638,30.226,30.226,0,0,1,5.175-5.772A25.229,25.229,0,0,1,177,44.171a28.378,28.378,0,0,1,5.709-2.528,25.462,25.462,0,0,1,4.976-1.208c1.2-.179,3.154-.268,3.154-.268l-2.243-2.729,3.287,1.9,2.843-2.439-1.866,3.289,2.488,2.953-3.287-2.014-2.954,2.55,1.733-3a23.8,23.8,0,0,0-5.02,1.633,17.159,17.159,0,0,0-3.487,1.835A21.951,21.951,0,0,0,177,48.467a29.846,29.846,0,0,0-5.82,8.3,29.238,29.238,0,0,0-2.421,8.457,28.9,28.9,0,0,0-.244,4.139,23.676,23.676,0,0,0,1.577,9.217,26.116,26.116,0,0,0,4.376,8.3,36.6,36.6,0,0,0,4.287,4.407c1.555,1.342,2.266,2.327,7.308,4.564a22.73,22.73,0,0,0,9.818,2.282A21.012,21.012,0,0,0,200.72,98a23.742,23.742,0,0,0,8.907-2.55,20.62,20.62,0,0,0,5.975-3.736,29.912,29.912,0,0,0,3.732-3.624C219.689,87.6,220.778,86.41,220.778,86.41Z" transform="translate(-160.778 -36.9)" fill="#f3bbc8"/>
    </g>
    <g id="Group_12" data-name="Group 12" transform="translate(69 14)">
      <g id="Group_6" data-name="Group 6">
        <path id="Path_4" data-name="Path 4" d="M32.154,354l4.084,7.976c1.48,2.8,3.015,5.564,4.632,8.251.493-.9.932-1.672,1.288-2.33l1.069-1.974,3.947-7.319c.192-.329.576-1.014,1.179-2.056s1.069-1.891,1.425-2.549h.356l1.453,13.1c.137,1.288.329,2.686.521,4.221s.356,2.714.466,3.618q-.822-.082-1.316-.082a9.7,9.7,0,0,0-1.508.082l-.932-10.992c-.192-1.508-.384-2.988-.576-4.468l-4.249,7.757-1.59,3.125c-.247.466-.548,1.1-.932,1.919-.384.795-.767,1.617-1.151,2.439h-.329l-1.645-3.4c-.466-1.014-1.042-2.138-1.7-3.426s-1.343-2.6-2.056-3.947-1.48-2.851-2.33-4.468l-1.316,11.786-.137,3.015v.658a5.391,5.391,0,0,1-.576-.027,5.33,5.33,0,0,0-.6-.027,7,7,0,0,0-.932.055v-.274l1.042-6.222,1.453-10.937c.055-.411.137-.9.192-1.48.082-.6.137-1.261.219-2h.548Z" transform="translate(-28.7 -352.355)" fill="#544844"/>
        <path id="Path_5" data-name="Path 5" d="M133.12,377.2a6.643,6.643,0,0,1,5.235,2.3,7.158,7.158,0,0,1,1.809,5.1,8.52,8.52,0,0,1-1.069,4.112,6.974,6.974,0,0,1-6.469,3.4,7.989,7.989,0,0,1-3.07-.63,7.354,7.354,0,0,1-2.357-1.727,6.247,6.247,0,0,1-1.343-2.3,10.093,10.093,0,0,1-.356-2.933,6.843,6.843,0,0,1,2.165-5.29A7.558,7.558,0,0,1,133.12,377.2Zm3.07,12.115A7.9,7.9,0,0,0,137.369,386a10.045,10.045,0,0,0,.082-1.562,8.987,8.987,0,0,0-1.042-4.358,3.474,3.474,0,0,0-3.289-1.891,4.036,4.036,0,0,0-3.783,1.974,9.451,9.451,0,0,0-1.151,4.824,7.919,7.919,0,0,0,1.151,4.331,3.883,3.883,0,0,0,3.508,1.809A4.212,4.212,0,0,0,136.19,389.315Z" transform="translate(-99.049 -369.196)" fill="#544844"/>
        <path id="Path_6" data-name="Path 6" d="M194.42,377.2a6.643,6.643,0,0,1,5.235,2.3,7.158,7.158,0,0,1,1.809,5.1,8.52,8.52,0,0,1-1.069,4.112,6.974,6.974,0,0,1-6.469,3.4,7.989,7.989,0,0,1-3.07-.63,7.354,7.354,0,0,1-2.357-1.727,6.248,6.248,0,0,1-1.343-2.3,10.1,10.1,0,0,1-.356-2.933,6.843,6.843,0,0,1,2.165-5.29A7.47,7.47,0,0,1,194.42,377.2Zm3.043,12.115A7.9,7.9,0,0,0,198.641,386a10.047,10.047,0,0,0,.082-1.562,8.987,8.987,0,0,0-1.042-4.358,3.474,3.474,0,0,0-3.289-1.891,4.036,4.036,0,0,0-3.783,1.974,9.451,9.451,0,0,0-1.151,4.824,7.919,7.919,0,0,0,1.151,4.331,3.883,3.883,0,0,0,3.509,1.809A4.212,4.212,0,0,0,197.463,389.315Z" transform="translate(-143.599 -369.196)" fill="#544844"/>
        <path id="Path_7" data-name="Path 7" d="M264.66,387.7l.082,2.933V392a9.4,9.4,0,0,0-1.316-.082,6.818,6.818,0,0,0-1.233.082c0-.3.027-.74.055-1.288s.055-.987.055-1.288c.027-.768.082-1.864.137-3.317,0-.247,0-.576.027-1.042s.027-.795.027-.987a6.59,6.59,0,0,0-.439-3.015,3.263,3.263,0,0,0-3.07-2.028,3.479,3.479,0,0,0-3.344,1.836,9.759,9.759,0,0,0-.658,4.194v4.961l.082,1.809v.192a11.523,11.523,0,0,0-1.233-.082,6.811,6.811,0,0,0-1.233.082c.027-.384.027-.932.082-1.645.027-.685.055-1.343.082-1.946.055-2.385.082-4.194.082-5.372,0-.685-.027-1.672-.082-2.933-.027-.548-.055-1.343-.055-2.412a7.692,7.692,0,0,0,1.179.082,5.945,5.945,0,0,0,1.179-.082v.658l-.082.932v1.069a5.468,5.468,0,0,1,4.906-2.878,4.669,4.669,0,0,1,3.81,1.508,4.5,4.5,0,0,1,.877,1.836,14.34,14.34,0,0,1,.165,2.44Z" transform="translate(-191.415 -369.414)" fill="#544844"/>
        <path id="Path_8" data-name="Path 8" d="M329.074,357.984a8.641,8.641,0,0,0-3.043-2.248,9.327,9.327,0,0,0-3.755-.795,9.057,9.057,0,0,0-3.591.74,8.3,8.3,0,0,0-2.933,2.083,9.8,9.8,0,0,0-2.22,6.688,12.921,12.921,0,0,0,.63,3.947,8.483,8.483,0,0,0,1.864,3.262,8.6,8.6,0,0,0,6.551,2.44,10.653,10.653,0,0,0,4.824-.987v-4.906c0-1.233-.027-2.138-.082-2.741.74.055,1.233.082,1.453.082a2.842,2.842,0,0,0,1.316-.192v.9l-.11,3.015v4.632a25.456,25.456,0,0,1-8.2,1.371,13.423,13.423,0,0,1-5.948-1.316,9.126,9.126,0,0,1-4.166-3.947,11.627,11.627,0,0,1-1.069-5.372,10.773,10.773,0,0,1,1.535-5.838,9.593,9.593,0,0,1,4.194-3.673,14.364,14.364,0,0,1,6.085-1.233,20.339,20.339,0,0,1,3.81.329,16.766,16.766,0,0,1,3.508,1.124.759.759,0,0,0,.219.137,1.627,1.627,0,0,1,.164.11c-.137.356-.274.768-.411,1.261s-.247.85-.3,1.1h-.329Z" transform="translate(-233.58 -352.283)" fill="#544844"/>
        <path id="Path_9" data-name="Path 9" d="M403.967,367.132l.055,3.152.055.274-.795-.055c-.822,0-1.4.027-1.782.055v-.9l.219-6.962V350.96l-.082-2.741-.055-.219.384.082h1.891a.845.845,0,0,0,.356-.082v.85l-.219,6.633v11.649Z" transform="translate(-299.606 -348)" fill="#544844"/>
        <path id="Path_10" data-name="Path 10" d="M433.12,377.2a6.643,6.643,0,0,1,5.235,2.3,7.158,7.158,0,0,1,1.809,5.1,8.519,8.519,0,0,1-1.069,4.112,6.974,6.974,0,0,1-6.469,3.4,7.989,7.989,0,0,1-3.07-.63,7.354,7.354,0,0,1-2.357-1.727,6.248,6.248,0,0,1-1.343-2.3,10.093,10.093,0,0,1-.356-2.933,6.843,6.843,0,0,1,2.165-5.29A7.514,7.514,0,0,1,433.12,377.2Zm3.07,12.115A7.9,7.9,0,0,0,437.369,386a10.047,10.047,0,0,0,.082-1.562,8.988,8.988,0,0,0-1.042-4.358,3.474,3.474,0,0,0-3.289-1.891,4.036,4.036,0,0,0-3.783,1.974,9.451,9.451,0,0,0-1.151,4.824,7.919,7.919,0,0,0,1.151,4.331,3.883,3.883,0,0,0,3.509,1.809A4.292,4.292,0,0,0,436.19,389.315Z" transform="translate(-317.074 -369.196)" fill="#544844"/>
        <path id="Path_11" data-name="Path 11" d="M498.112,380.978l.85,2.631,2.028,5.455.137.247.439-.85,2.111-5.564,1.645-4.577.055-.192.658.082a6.415,6.415,0,0,0,1.233-.082l-.274.713-1.645,3.481-1.508,3.508-1.562,4-.987,2.577a4.335,4.335,0,0,0-.713-.082,3.7,3.7,0,0,0-.932.082l-.219-.713-.795-2.741-1.809-5.1-.932-2.3-.329.658-1.837,4.715-.987,2.823-.85,2.631q-.864-.082-.9-.082a5.922,5.922,0,0,0-.795.082l-1.042-3.207-2.083-5.7-2.083-5.181-.082-.192a9.128,9.128,0,0,0,1.453.082,7.449,7.449,0,0,0,1.316-.082l.9,2.933,1.864,5.427,1.179,2.8,2.165-5.838,1.836-5.235a5.67,5.67,0,0,0,.795.055,3.209,3.209,0,0,0,.877-.082Z" transform="translate(-360.267 -369.849)" fill="#544844"/>
      </g>
      <g id="Group_9" data-name="Group 9" transform="translate(26 31.744)">
        <path id="Path_14" data-name="Path 14" d="M191.6,460.5h1.393v5.258h.045c.27-.4.584-.809.854-1.169l3.326-4.09h1.753l-3.955,4.629,4.27,6.292h-1.663l-3.6-5.348-1.034,1.213v4.18H191.6Z" transform="translate(-191.6 -459.916)" fill="#544844"/>
        <path id="Path_15" data-name="Path 15" d="M212.8,473.9v1.034h-4V473.9Z" transform="translate(-201.07 -467.293)" fill="#544844"/>
        <path id="Path_16" data-name="Path 16" d="M221.29,459.2h1.393v4.9h.045a2.92,2.92,0,0,1,2.652-1.438c1.978,0,3.326,1.618,3.326,4,0,2.787-1.8,4.18-3.506,4.18a2.952,2.952,0,0,1-2.652-1.438H222.5l-.09,1.258H221.2c.045-.539.045-1.348.045-2.022V459.2Zm1.393,8.359a2.108,2.108,0,0,0,2.2,2.2c1.483,0,2.382-1.214,2.382-3.011,0-1.573-.809-2.921-2.337-2.921a2.314,2.314,0,0,0-2.157,1.753,2.278,2.278,0,0,0-.09.584Z" transform="translate(-207.897 -459.2)" fill="#544844"/>
        <path id="Path_17" data-name="Path 17" d="M241.948,471.36a2.5,2.5,0,0,0,2.7,2.7,4.939,4.939,0,0,0,2.157-.4l.27,1.034a6.452,6.452,0,0,1-2.607.494,3.657,3.657,0,0,1-3.865-3.955c0-2.382,1.393-4.225,3.685-4.225,2.562,0,3.236,2.247,3.236,3.685a2.979,2.979,0,0,1-.045.674Zm4.18-1.034a2.016,2.016,0,0,0-1.978-2.292,2.374,2.374,0,0,0-2.2,2.292Z" transform="translate(-218.578 -463.494)" fill="#544844"/>
        <path id="Path_18" data-name="Path 18" d="M264.667,473.112A12.02,12.02,0,0,0,264.8,475h-1.258l-.135-.989h-.045a2.864,2.864,0,0,1-2.382,1.169,2.231,2.231,0,0,1-2.382-2.247c0-1.888,1.663-2.921,4.719-2.921v-.18a1.618,1.618,0,0,0-1.8-1.8,3.966,3.966,0,0,0-2.067.584l-.315-.944a5.084,5.084,0,0,1,2.607-.674c2.382,0,2.966,1.618,2.966,3.191v2.921ZM263.319,471c-1.573-.045-3.326.225-3.326,1.753a1.249,1.249,0,0,0,1.348,1.348,1.968,1.968,0,0,0,1.933-1.3,1.685,1.685,0,0,0,.045-.449Z" transform="translate(-228.488 -463.494)" fill="#544844"/>
        <path id="Path_19" data-name="Path 19" d="M283.707,473.063c0,.809,0,1.528.045,2.157h-1.258l-.045-1.258H282.4A2.954,2.954,0,0,1,279.8,475.4c-1.214,0-2.7-.674-2.7-3.416V467.4h1.438v4.315c0,1.483.449,2.517,1.753,2.517a2.11,2.11,0,0,0,1.888-1.3,1.711,1.711,0,0,0,.135-.719V467.4h1.438v5.663Z" transform="translate(-238.673 -463.715)" fill="#544844"/>
        <path id="Path_20" data-name="Path 20" d="M297.707,463.2v1.888h2.022v1.079h-2.022v4.225c0,.989.27,1.528,1.079,1.528a3.067,3.067,0,0,0,.809-.09l.045,1.079a4.169,4.169,0,0,1-1.258.18,1.993,1.993,0,0,1-1.528-.584,3,3,0,0,1-.539-2.067v-4.27H295.1v-1.079h1.213V463.65Z" transform="translate(-248.583 -461.402)" fill="#544844"/>
        <path id="Path_21" data-name="Path 21" d="M308.628,467.4l1.708,4.629c.18.539.4,1.124.539,1.618h.045c.135-.449.315-1.079.494-1.618l1.573-4.584h1.483l-2.157,5.573c-1.034,2.7-1.708,4.045-2.7,4.9a3.97,3.97,0,0,1-1.753.9l-.36-1.169a5.835,5.835,0,0,0,1.258-.674,4.652,4.652,0,0,0,1.213-1.573,1.849,1.849,0,0,0,.135-.359.9.9,0,0,0-.135-.36l-2.876-7.236h1.528Z" transform="translate(-255.19 -463.715)" fill="#544844"/>
        <path id="Path_22" data-name="Path 22" d="M333,473.562a3.9,3.9,0,0,0,1.888.539c1.034,0,1.483-.494,1.483-1.169s-.4-1.034-1.438-1.438c-1.438-.539-2.067-1.258-2.067-2.2a2.42,2.42,0,0,1,2.7-2.292,3.508,3.508,0,0,1,1.888.494l-.36,1.034a3.166,3.166,0,0,0-1.618-.45c-.854,0-1.3.494-1.3,1.079,0,.629.45.944,1.483,1.348,1.348.495,2.067,1.169,2.067,2.337,0,1.393-1.079,2.382-2.921,2.382a4.55,4.55,0,0,1-2.2-.539Z" transform="translate(-269.229 -463.494)" fill="#544844"/>
        <path id="Path_23" data-name="Path 23" d="M348.807,463.2v1.888h2.022v1.079h-2.022v4.225c0,.989.27,1.528,1.079,1.528a3.067,3.067,0,0,0,.809-.09l.045,1.079a4.169,4.169,0,0,1-1.259.18,1.993,1.993,0,0,1-1.528-.584,3,3,0,0,1-.539-2.067v-4.27H346.2v-1.079h1.213V463.65Z" transform="translate(-276.717 -461.402)" fill="#544844"/>
        <path id="Path_24" data-name="Path 24" d="M366.185,471a3.868,3.868,0,0,1-3.91,4.18,3.759,3.759,0,0,1-3.775-4.045A3.828,3.828,0,0,1,362.365,467,3.73,3.73,0,0,1,366.185,471Zm-6.2.09c0,1.708.989,3.011,2.382,3.011,1.348,0,2.382-1.258,2.382-3.056,0-1.348-.674-3.011-2.337-3.011C360.747,468.079,359.983,469.607,359.983,471.09Z" transform="translate(-283.489 -463.494)" fill="#544844"/>
        <path id="Path_25" data-name="Path 25" d="M379.545,469.662c0-.944,0-1.708-.045-2.427h1.258l.045,1.573h.045a2.376,2.376,0,0,1,2.2-1.708,1.247,1.247,0,0,1,.4.045v1.348a1.536,1.536,0,0,0-.494-.045,1.977,1.977,0,0,0-1.888,1.8,3.184,3.184,0,0,0-.045.674v4.18H379.59v-5.438Z" transform="translate(-295.051 -463.549)" fill="#544844"/>
        <path id="Path_26" data-name="Path 26" d="M391.148,471.36a2.5,2.5,0,0,0,2.7,2.7,4.938,4.938,0,0,0,2.157-.4l.27,1.034a6.452,6.452,0,0,1-2.607.494,3.657,3.657,0,0,1-3.865-3.955c0-2.382,1.393-4.225,3.685-4.225,2.562,0,3.236,2.247,3.236,3.685a2.975,2.975,0,0,1-.045.674Zm4.18-1.034a2.016,2.016,0,0,0-1.978-2.292,2.374,2.374,0,0,0-2.2,2.292Z" transform="translate(-300.721 -463.494)" fill="#544844"/>
      </g>
    </g>
  </g>
</svg>
